<svg xmlns="http://www.w3.org/2000/svg" width="152" height="45" fill="none" viewBox="0 0 152 45">
  <g clip-path="url(#a)">
    <path fill="#fff" d="M54.46 23.516c1.685-1.34 2.978-2.794 3.994-4.387 1.016-1.546 1.731-3.07 2.17-4.525.439-1.5.67-2.7.67-3.647 0-.97-.093-1.87-.393-2.748-.3-.877-.693-1.616-1.34-2.078-3.554-2.493-7.918 1.316-8.888 2.817.185-1.593.185-1.662.185-2.286 0-.53-.092-.923-.346-1.154-.185-.185-.462-.53-1.87-.53-2.309 0-2.61.876-2.655 1.915-.393 6.118-1.016 17.27.138 31.606.185.97.554 1.524 1.593 1.455 1.362-.115 1.34-1.293 1.34-2.401 0-4.04.138-8.865.438-14.337.185-3.325.439-6.303.716-9.143.046-.623.3-1.2.67-1.87a17.708 17.708 0 0 1 2.262-2.978c.808-.808 1.547-1.247 2.17-1.247.923 0 1.339.97 1.339 2.84 0 1.385-.23 2.932-.716 4.525a14.136 14.136 0 0 1-2.262 4.479c-.531.762-1.293 1.385-2.309 1.824-.716.3-1.108.67-1.108 1.062 0 .53 1.246 3.186 3.855 8.08 1.34 2.54 2.702 4.756 4.087 6.696.3.438.67.67 1.062.67.184 0 .392 0 .623-.093.485-.185.716-.531.716-1.016 0-.716-1.34-3.81-3.994-9.143l-2.147-4.386Z"/>
    <path fill="#fff" d="M73.045 15.666c-1.131-1.016-2.517-1.547-4.202-1.662h-.762a9.794 9.794 0 0 0-3.786.739c-1.431.739-2.447 1.87-3.07 3.301a11.286 11.286 0 0 0-.763 4.11c0 .277.047.508.047.808a11.008 11.008 0 0 0 1.339 4.733c.761 1.43 1.847 2.4 3.163 2.955.808.277 1.685.461 2.516.461.37 0 .716 0 1.016-.046a8.43 8.43 0 0 0 3.37-1.247c1.432-.97 2.448-2.4 3.025-4.109.37-1.085.508-2.216.508-3.37 0-.693-.046-1.317-.162-1.986a9.087 9.087 0 0 0-2.24-4.687Zm-.277 8.542c-.254 1.062-.762 1.986-1.524 2.632a4.71 4.71 0 0 1-1.824.924c-.161.046-.37.07-.577.07a3.695 3.695 0 0 1-1.408-.163c-.762-.277-1.409-.83-1.893-1.662a7.118 7.118 0 0 1-.924-2.816c0-.185-.046-.3-.07-.485-.045-.878.024-1.709.278-2.54.277-.9.808-1.639 1.593-2.147a5.341 5.341 0 0 1 2.078-.623l.438-.023c.947 0 1.732.254 2.401.83.716.74 1.2 1.64 1.432 2.748.092.416.138.785.161 1.2a8.82 8.82 0 0 1-.161 2.055Z"/>
    <path fill="#fff" d="M87.682 24.162c-2.032-.277-1.5 3.948-4.063 4.11-3.556.23-4.733-11.244-.093-11.244 2.078 0 1.501 2.886 3.417 2.655 1.847-.254 1.385-5.68-3.97-5.68-8.22 0-8.82 16.277-.44 17.062 6.326.624 6.88-6.603 5.149-6.903Zm26.134 0c-1.662-.23-1.316 4.549-5.102 4.34-.715-.046-1.2-.507-1.593-1.084a4.997 4.997 0 0 1-.808-2.009 7.37 7.37 0 0 1-.161-1.547v-.508a17.528 17.528 0 0 0 3.024-.392 8.773 8.773 0 0 0 2.863-1.154 5.616 5.616 0 0 0 1.431-1.432c.346-.508.577-1.2.623-1.94v-.16c0-1.27-.392-2.287-1.2-2.98-.808-.738-1.824-1.2-2.978-1.361-.462-.046-.924-.116-1.316-.116-1.547 0-2.863.393-3.948 1.2-1.385.97-2.24 2.633-2.632 4.918a12.89 12.89 0 0 0-.231 2.517c0 .623.046 1.27.116 1.94.23 1.546.692 2.908 1.431 4.109.739 1.2 1.893 2.008 3.371 2.47.577.162 1.085.23 1.662.23 5.402 0 7.688-6.74 5.448-7.04Zm-2.562-6.533c1.154 2.331-4.525 3.301-5.264 3.024.577-4.617 4.571-4.386 5.264-3.024Zm38.071-2.539c-.416-.74-1.109-.624-1.547-.6-1.963.114-1.663 3.231-1.663 3.785-.138 2.494-2.054 8.45-4.409 8.45-3.117 0-1.547-9.466-1.501-9.927.069-.716.439-2.332-1.293-2.286-1.87.046-2.031 2.286-2.101 3.048 0 .392-1.431 11.243 4.641 11.613 2.355.138 3.671-1.224 4.433-2.47 0 0 .3 10.527-4.133 10.458-2.909-.047-2.655-5.864-5.033-4.64-1.408.415-.577 7.456 5.887 7.456 8.566 0 7.619-23.248 6.719-24.888Zm-52.431 9.58s-.439-.623-.855-1.223a40.75 40.75 0 0 0 2.01-1.986c.253-.277.692-.739 1.292-1.385.6-.646 1.039-1.34 1.316-2.055.138-.323.046-.739-.393-1.062-.53-.37-.923-.277-1.2 0-.9.947-3.786 3.833-5.541 4.872 0-5.587.947-13.622 1.062-15.353.023-.462 0-1.409-2.309-1.409-2.516 0-2.655.808-2.7 1.732-.116 2.332-.694 12.698.761 26.62.092.854.785 1.315 1.662 1.223 1.362-.162 1.362-1.154 1.34-2.124-.024-1.016 0-4.571.069-6.742l.346-.277a49.874 49.874 0 0 0 3.486 3.879c.277.277.716.716 1.362 1.316a6.767 6.767 0 0 0 2.032 1.385c.323.139.739.07 1.085-.37.323-.438.3-.923.046-1.2-.993-1.015-4.386-5.125-4.871-5.84Zm27.889-10.343c-.093-.461-.508-.508-.808-.508-.878-.023-1.663 0-2.471-.023.024-.37.047-.739.07-.923 0 0 .554-6.21.554-6.65 0-.369-.093-.646-.323-.807a1.652 1.652 0 0 0-.762-.3 11.99 11.99 0 0 0-.97-.047c-.392 0-.739.047-1.085.093-.831.161-1.27.577-1.293 1.339-.092 1.593-.162 4.548-.162 7.365-.115 0-1.5.023-2.308.346-.37.161-.462.623-.393 1.362.07.808.439 1.431.762 1.385.37-.023 1.062-.3 1.893-.392.046 0 .116.046.116.092.069 4.387.277 9.766.877 13.737.115.692.646 1.085 1.57 1.016 1.131-.093 1.2-.97 1.177-1.755-.046-2.055.07-8.889.208-12.952 0-.069.046-.115.116-.115.484 0 2.262.023 2.424.023.138-.023.508-.116.623-.208.254-.323.346-1.431.185-2.078Zm9.974-.3c-.855-.23-2.217-.23-3.21-.23 0-2.287-.207-5.611 2.032-5.611 1.455 0 2.724.023 2.84-1.27.138-1.593-1.247-1.893-2.055-1.87-1.454.023-3.509.023-5.102 1.593-1.686 1.64-1.455 5.264-1.501 7.134 0 0-.623 0-1.131.07-.531.069-.693.507-.693 1.223 0 .762.162 1.454.762 1.454h.831c.07 0 .139.07.139.139-.093 4.456-.185 12.352.069 16.553.023.762.462 1.178 1.316 1.34.346.046.716.092 1.108.092.346 0 .67-.023.97-.046a1.44 1.44 0 0 0 .762-.3c.231-.162.323-.44.323-.832 0-.438-.485-7.55-.485-7.55-.069-.738-.092-5.886-.138-9.21 0-.116.092-.209.207-.209.808.023 1.94.185 2.979.462.392.116.9-.392.992-1.662.047-1.062-.738-1.2-1.015-1.27ZM7.778 34.09s.23-3.048 2.955-5.634v-2.285c-1.593.623-3.394 1.547-4.71 2.955-4.41 4.733-3.81 8.727-3.902 10.343-.023.277.208.462.485.485 1.686.07 6.465-.162 10.112-4.04 1.34-1.409 2.263-3.048 2.886-4.64H13.55c-2.585 2.585-5.771 2.816-5.771 2.816Z"/>
    <path fill="#fff" d="M36.521 5.877c-.07-.461-.07-.461-.53-.53-2.864-.462-12.63-1.663-20.987 8.472l-4.733.023c-.346.07-.67.3-.808.624l-3.14 7.25c-.161.345.046.738.439.738h4.363c-.138.323-.3 1.985-.3 2.424 0 .439-.392.023 2.863 3.348 3.324 3.324 3.971 2.978 4.571 2.886a47.627 47.627 0 0 0 1.155-.162l-.024 4.294c0 .37.37.6.74.439l7.272-3.117c.323-.162.554-.462.623-.808 0 0-.046-4.456 0-4.479 9.627-7.642 9.027-18.285 8.496-21.402Zm-12.86 16.577a4.335 4.335 0 0 1-4.34-4.34c0-2.402 1.963-4.318 4.34-4.318a4.336 4.336 0 0 1 4.341 4.34 4.316 4.316 0 0 1-4.34 4.318Z"/>
    <path fill="#fff" d="M23.662 15.39a2.754 2.754 0 0 0-2.748 2.747c0 1.5 1.224 2.747 2.747 2.747a2.754 2.754 0 0 0 2.748-2.747 2.74 2.74 0 0 0-2.747-2.748Z"/>
  </g>
  <defs>
    <clipPath id="a">
      <path fill="#fff" d="M0 0h147.757v35H0z" transform="translate(2.121 5)"/>
    </clipPath>
  </defs>
</svg>
